<?xml version="1.0" encoding="UTF-8"?> <svg xmlns="http://www.w3.org/2000/svg" width="168" height="46" viewBox="0 0 168 46" fill="none"><path d="M0 30.8316V6.25525H5.40898V25.89H14.9501V30.8316H0Z" fill="#1D1D1B"></path><path d="M16.0762 21.9085C16.0762 19.1194 16.9911 16.8659 18.7807 15.1682C20.5702 13.4402 22.8826 12.5913 25.6575 12.5913C28.362 12.5913 30.5336 13.4705 32.2227 15.1985C33.9117 16.9265 34.7462 19.0385 34.7462 21.6154C34.7462 22.2116 34.716 22.7775 34.6758 23.303H21.3042C21.4047 25.415 23.2345 26.7995 26.0094 26.7995C27.6582 26.7995 29.0959 26.2336 30.3225 25.0715L33.3789 28.002C31.3078 30.1545 28.744 31.2459 25.7681 31.2459C22.8525 31.2459 20.5401 30.397 18.7505 28.7397C16.9609 27.0521 16.0862 24.8289 16.0862 22.0398V21.9085H16.0762ZM29.478 19.8975C29.478 18.2402 27.7588 16.9366 25.6575 16.9366C23.3753 16.9366 21.5153 18.2402 21.3746 19.8975H29.478Z" fill="#1D1D1B"></path><path d="M38.4962 30.8316V17.8158H36.1436V13.0562H38.4962V6.25525H43.5834V13.0562H47.4843V17.8158H43.5834V30.8316H38.4962Z" fill="#1D1D1B"></path><path d="M51.1641 24.9097C52.1494 26.0719 54.0093 26.85 56.0101 26.85C57.7997 26.85 58.6743 26.3548 58.6743 25.4049C58.6743 25.0512 58.4632 24.7683 58.0812 24.556C57.6991 24.3438 56.9953 24.1013 55.9397 23.8487C54.884 23.6061 54.0797 23.3535 53.5569 23.1817C50.8524 22.2318 49.4851 20.6048 49.4851 18.2402C49.4851 16.4414 50.1487 15.0267 51.4858 14.0464C52.823 13.0258 54.4316 12.5306 56.362 12.5306C58.8553 12.5306 60.856 13.3088 62.4345 14.8246L59.9411 18.2806C58.9961 17.4014 57.7293 16.977 56.2212 16.977C55.0952 16.977 54.4718 17.4419 54.4718 18.1088C54.4718 18.5636 54.6427 18.8162 55.2058 19.0587C55.8693 19.3417 57.3472 19.5842 59.3077 20.2916C62.2234 21.2819 63.6611 22.9695 63.6611 25.3342C63.6611 28.962 61.0672 31.3267 55.8693 31.3267C52.4309 31.3267 49.8672 30.2656 48.1479 28.1536L51.1641 24.9097Z" fill="#1D1D1B"></path><path d="M68.6076 23.0706C69.9046 25.223 71.9354 26.3144 74.7505 26.3144C77.2439 26.3144 78.4001 25.1826 78.4001 23.879C78.4001 22.9594 77.8773 22.3329 77.0629 21.8377C76.6105 21.5244 75.6252 21.1 74.9617 20.9181C74.3685 20.6756 72.9609 20.2107 72.2572 19.9278C68.4367 18.513 66.3254 16.5021 66.3254 12.8035C66.3254 10.6915 67.0995 8.99375 68.678 7.7609C70.2564 6.48762 72.1868 5.86108 74.469 5.86108C78.018 5.86108 80.7125 7.2051 82.6126 9.88303L78.9933 12.6317C78.008 11.3584 76.5401 10.7218 74.6098 10.7218C72.8202 10.7218 71.664 11.5706 71.664 12.7327C71.664 13.5412 71.8751 14.0363 72.6091 14.5012C72.9911 14.7134 73.3832 14.8852 73.6949 15.0267L75.4442 15.6229C76.2486 15.9058 76.9523 16.1484 77.5455 16.401C81.9994 18.0886 83.7889 20.1703 83.7889 23.6971C83.7889 28.2445 80.7024 31.2054 74.7003 31.2054C69.7538 31.2054 66.3153 28.9822 64.6665 25.7687L68.6076 23.0706Z" fill="#1D1D1B"></path><path d="M89.0973 5.57812C90.7462 5.57812 92.0833 6.88172 92.0833 8.57942C92.0833 10.2367 90.7462 11.5403 89.0973 11.5403C87.4485 11.5403 86.1113 10.2367 86.1113 8.57942C86.1214 6.88172 87.4485 5.57812 89.0973 5.57812ZM86.5034 13.0561H91.7314V30.8315H86.5034V13.0561Z" fill="#1D1D1B"></path><path d="M96.9594 15.4208C98.6384 13.6221 100.75 12.7429 103.243 12.7429C105.907 12.7429 107.978 13.8343 108.501 15.3905V13.0663H113.729V27.8707C113.729 31.9937 113.066 34.6817 110.643 36.5411C108.924 37.9154 106.782 38.5824 104.218 38.5824C100.78 38.5824 97.9045 37.7335 95.5519 36.0763L98.0452 32.2665C99.8348 33.3983 101.624 33.9642 103.484 33.9642C104.992 33.9642 106.219 33.651 107.094 33.0446C108.109 32.3373 108.642 31.0337 108.642 29.1642V28.7701C107.908 30.0433 105.797 30.9225 103.243 30.9225C100.75 30.9225 98.6485 30.0737 96.9594 28.3456C95.3106 26.6176 94.4661 24.4652 94.4661 21.9287C94.4761 19.3721 95.3106 17.1792 96.9594 15.4208ZM101.001 25.0513C101.876 25.9001 102.931 26.3246 104.198 26.3246C105.495 26.3246 106.581 25.9001 107.456 25.0513C108.371 24.2024 108.823 23.1818 108.823 21.9489C108.823 20.7161 108.371 19.655 107.456 18.8062C106.581 17.927 105.495 17.5026 104.198 17.5026C102.931 17.5026 101.886 17.927 101.001 18.8062C100.126 19.655 99.7041 20.7161 99.7041 21.9489C99.7041 23.1818 100.116 24.2024 101.001 25.0513Z" fill="#1D1D1B"></path><path d="M117.147 30.8316V13.0562H122.375V15.2794C123.109 13.7232 125.11 12.6722 127.533 12.6722C131.846 12.6722 134.299 15.4209 134.299 20.0391V30.8316H129.071V20.6757C129.071 18.594 127.915 17.3207 125.844 17.3207C123.843 17.3207 122.365 18.7658 122.365 20.8475V30.8316H117.147Z" fill="#1D1D1B"></path><mask id="mask0_1_2369" style="mask-type:luminance" maskUnits="userSpaceOnUse" x="139" y="11" width="12" height="9"><path d="M143.569 17.9876L143.75 18.2706C144.172 18.8668 144.946 19.2609 145.741 19.2811C146.605 19.2912 147.369 18.8466 147.792 18.1493C147.802 18.1392 147.802 18.1392 147.802 18.1291C147.812 18.1089 150.074 14.1476 150.074 14.1476L148.455 11.3484H139.739L143.569 17.9876Z" fill="white"></path></mask><g mask="url(#mask0_1_2369)"><path d="M152.819 18.1796L148.626 7.74072L137.004 12.47L141.196 22.8988L152.819 18.1796Z" fill="url(#paint0_linear_1_2369)"></path></g><mask id="mask1_1_2369" style="mask-type:luminance" maskUnits="userSpaceOnUse" x="146" y="0" width="22" height="20"><path d="M158.921 0L150.577 14.5619L148.204 18.6444H148.194L148.174 18.6748C147.711 19.4023 146.907 19.8773 146.012 19.8672C146.012 19.8672 146.073 19.8874 146.123 19.8874C146.163 19.8874 146.656 19.8874 146.656 19.8874C146.656 19.8874 153.713 19.8874 153.784 19.8874C155.935 19.8874 156.649 19.564 157.122 18.8668C157.132 18.8465 157.152 18.8364 157.162 18.8162L157.182 18.7859L159.555 14.7033L159.545 14.6932L168 0H158.921V0Z" fill="white"></path></mask><g mask="url(#mask1_1_2369)"><path d="M136.33 11.9244L154.85 -10.8329L177.722 7.98335L159.203 30.7306L136.33 11.9244Z" fill="url(#paint1_linear_1_2369)"></path></g><path d="M2.46321 43.2712C1.79965 43.2712 1.2869 43.0792 0.904857 42.7053C0.52281 42.3213 0.331787 41.7958 0.331787 41.1188C0.331787 40.4417 0.512757 39.896 0.864642 39.4918C1.21653 39.0876 1.68906 38.8855 2.29229 38.8855C2.85531 38.8855 3.29768 39.0573 3.6194 39.4109C3.94112 39.7545 4.11204 40.2194 4.11204 40.7853V41.1895H1.0255C1.03556 41.6847 1.17631 42.0586 1.42766 42.3213C1.679 42.5739 2.03089 42.7053 2.48331 42.7053C2.9659 42.7053 3.43843 42.6042 3.91096 42.4224V42.9883C3.66967 43.0893 3.44848 43.16 3.23735 43.2005C3.01617 43.251 2.76482 43.2712 2.46321 43.2712ZM2.27218 39.4211C1.91024 39.4211 1.62873 39.5322 1.4176 39.7545C1.20647 39.9768 1.07577 40.28 1.03556 40.6741H3.36805C3.36805 40.2699 3.26751 39.9566 3.08654 39.7444C2.89552 39.5322 2.62407 39.4211 2.27218 39.4211ZM1.77954 38.3095C1.91024 38.1478 2.051 37.9558 2.20181 37.7335C2.35261 37.5111 2.47326 37.309 2.55369 37.1473H3.37811V37.2282C3.25746 37.4 3.07649 37.6021 2.84525 37.8446C2.60396 38.0871 2.40288 38.2791 2.23197 38.4105H1.77954V38.3095Z" fill="#1D1D1B"></path><path d="M11.9138 42.0384C11.9138 42.4325 11.763 42.7357 11.4513 42.9479C11.1396 43.1601 10.7073 43.2712 10.1544 43.2712C9.56119 43.2712 9.09871 43.1803 8.76693 43.0085V42.4123C8.97807 42.5133 9.2093 42.5942 9.46065 42.6548C9.70194 42.7154 9.94324 42.7458 10.1745 42.7458C10.5264 42.7458 10.7978 42.6952 10.9888 42.5841C11.1799 42.4729 11.2703 42.3112 11.2703 42.099C11.2703 41.9373 11.1899 41.7958 11.0391 41.6746C10.8883 41.5634 10.5967 41.4219 10.1544 41.2603C9.74216 41.1087 9.44054 40.9874 9.26963 40.8763C9.09871 40.7651 8.96801 40.6438 8.87753 40.5024C8.7971 40.3609 8.74683 40.1992 8.74683 40.0072C8.74683 39.6636 8.89763 39.3908 9.1892 39.1887C9.48076 38.9866 9.89297 38.8855 10.4057 38.8855C10.8883 38.8855 11.3508 38.9764 11.8133 39.1684L11.572 39.6939C11.1195 39.5221 10.7174 39.4312 10.3554 39.4312C10.0337 39.4312 9.79243 39.4817 9.63157 39.5727C9.4707 39.6636 9.39027 39.795 9.39027 39.9668C9.39027 40.0779 9.42044 40.179 9.48076 40.2598C9.54108 40.3407 9.64162 40.4114 9.77232 40.4923C9.90302 40.563 10.1644 40.664 10.5565 40.8055C11.0894 40.9874 11.4413 41.1693 11.6323 41.3613C11.8133 41.5331 11.9138 41.7655 11.9138 42.0384Z" fill="#1D1D1B"></path><path d="M13.7637 37.8143C13.7637 37.6728 13.8039 37.5617 13.8743 37.4909C13.9547 37.4202 14.0452 37.3899 14.1558 37.3899C14.2664 37.3899 14.3568 37.4202 14.4373 37.4909C14.5177 37.5617 14.5579 37.6627 14.5579 37.8143C14.5579 37.9558 14.5177 38.067 14.4373 38.1377C14.3568 38.2084 14.2664 38.2387 14.1558 38.2387C14.0452 38.2387 13.9446 38.2084 13.8743 38.1377C13.7938 38.067 13.7637 37.9659 13.7637 37.8143ZM14.4976 43.1904H13.824V38.9663H14.4976V43.1904Z" fill="#1D1D1B"></path><path d="M22.4202 43.1904V40.4418C22.4202 40.1083 22.3398 39.8556 22.189 39.6839C22.0382 39.5121 21.7969 39.4312 21.4752 39.4312C21.0529 39.4312 20.7412 39.5525 20.5402 39.7748C20.3391 40.0072 20.2385 40.3609 20.2385 40.8359V43.2005H19.5649V40.4519C19.5649 40.1184 19.4845 39.8657 19.3337 39.694C19.1829 39.5222 18.9416 39.4413 18.6199 39.4413C18.1976 39.4413 17.8859 39.5626 17.6949 39.8051C17.4938 40.0476 17.4033 40.4418 17.4033 40.9874V43.2005H16.7297V38.9765H17.2827L17.3933 39.5525H17.4235C17.5542 39.3504 17.7351 39.1887 17.9664 39.0674C18.1976 38.9563 18.459 38.8956 18.7506 38.8956C19.4443 38.8956 19.9068 39.1382 20.1179 39.6131H20.1481C20.2788 39.3908 20.4698 39.219 20.7211 39.0876C20.9725 38.9563 21.264 38.8956 21.5858 38.8956C22.0884 38.8956 22.4705 39.0169 22.7218 39.2594C22.9732 39.502 23.0938 39.8961 23.0938 40.4418V43.2005H22.4202V43.1904Z" fill="#1D1D1B"></path><path d="M27.3665 43.2712C27.0749 43.2712 26.8135 43.2207 26.5723 43.1197C26.331 43.0186 26.1299 42.8569 25.969 42.6548H25.9188C25.9489 42.9074 25.969 43.1399 25.969 43.3521V45.0902H25.2954V38.9562H25.8484L25.9389 39.5322H25.969C26.1399 39.2998 26.341 39.1381 26.5723 39.0371C26.8035 38.936 27.0649 38.8855 27.3665 38.8855C27.9597 38.8855 28.4121 39.0775 28.7338 39.4615C29.0556 39.8455 29.2164 40.3811 29.2164 41.0784C29.2164 41.7756 29.0556 42.3112 28.7238 42.6952C28.4021 43.0792 27.9496 43.2712 27.3665 43.2712ZM27.276 39.4312C26.8236 39.4312 26.4918 39.5525 26.2907 39.795C26.0897 40.0375 25.9791 40.4114 25.9791 40.9369V41.0784C25.9791 41.6746 26.0796 42.099 26.2907 42.3516C26.5019 42.6043 26.8337 42.7356 27.2961 42.7356C27.6782 42.7356 27.9798 42.5841 28.201 42.291C28.4222 41.998 28.5328 41.5836 28.5328 41.0683C28.5328 40.5428 28.4222 40.1386 28.201 39.8556C27.9798 39.5727 27.6681 39.4312 27.276 39.4312Z" fill="#1D1D1B"></path><path d="M31.8809 37.1879H31.2073V43.1905H31.8809V37.1879Z" fill="#1D1D1B"></path><path d="M36.013 43.2713C35.3595 43.2713 34.8367 43.0793 34.4547 42.6953C34.0726 42.3113 33.8816 41.7858 33.8816 41.1088C33.8816 40.4317 34.0626 39.886 34.4144 39.4818C34.7663 39.0776 35.2389 38.8755 35.8421 38.8755C36.4051 38.8755 36.8475 39.0473 37.1692 39.401C37.4909 39.7547 37.6618 40.2094 37.6618 40.7753V41.1795H34.5854C34.5954 41.6747 34.7362 42.0486 34.9875 42.3113C35.2389 42.564 35.5907 42.6953 36.0432 42.6953C36.5258 42.6953 36.9983 42.6044 37.4708 42.4124V42.9783C37.2295 43.0793 37.0083 43.1501 36.7872 43.1905C36.576 43.2511 36.3146 43.2713 36.013 43.2713ZM35.832 39.4212C35.4701 39.4212 35.1886 39.5323 34.9775 39.7547C34.7663 39.977 34.6356 40.2801 34.5954 40.6742H36.9279C36.9279 40.27 36.8374 39.9568 36.6464 39.7446C36.4554 39.5323 36.1839 39.4212 35.832 39.4212Z" fill="#1D1D1B"></path><path d="M42.4875 42.0384C42.4875 42.4325 42.3367 42.7357 42.025 42.9479C41.7134 43.1601 41.2811 43.2712 40.7281 43.2712C40.1349 43.2712 39.6724 43.1803 39.3407 43.0085V42.4123C39.5518 42.5133 39.783 42.5942 40.0344 42.6548C40.2757 42.7154 40.517 42.7458 40.7482 42.7458C41.1001 42.7458 41.3715 42.6952 41.5626 42.5841C41.7536 42.4729 41.8441 42.3112 41.8441 42.099C41.8441 41.9373 41.7636 41.7958 41.6128 41.6746C41.462 41.5634 41.1705 41.4219 40.7281 41.2603C40.3159 41.1087 40.0143 40.9874 39.8434 40.8763C39.6724 40.7651 39.5417 40.6438 39.4513 40.5024C39.3708 40.3609 39.3206 40.1992 39.3206 40.0072C39.3206 39.6636 39.4714 39.3908 39.7629 39.1887C40.0545 38.9866 40.4667 38.8855 40.9794 38.8855C41.462 38.8855 41.9245 38.9764 42.387 39.1684L42.1457 39.6939C41.6933 39.5221 41.2911 39.4312 40.9292 39.4312C40.6074 39.4312 40.3662 39.4817 40.2053 39.5727C40.0444 39.6636 39.964 39.795 39.964 39.9668C39.964 40.0779 39.9942 40.179 40.0545 40.2598C40.1148 40.3407 40.2154 40.4114 40.3461 40.4923C40.4768 40.563 40.7381 40.664 41.1303 40.8055C41.6631 40.9874 42.015 41.1693 42.206 41.3613C42.397 41.5331 42.4875 41.7655 42.4875 42.0384Z" fill="#1D1D1B"></path><path d="M50.1184 43.1904L49.9877 42.5942H49.9575C49.7363 42.8569 49.5152 43.0388 49.294 43.1298C49.0728 43.2207 48.8013 43.2713 48.4695 43.2713C48.0272 43.2713 47.6853 43.1702 47.434 42.9479C47.1827 42.7357 47.062 42.4224 47.062 42.0283C47.062 41.1693 47.7859 40.7247 49.2236 40.6843L49.9776 40.6641V40.4013C49.9776 40.0679 49.8972 39.8253 49.7464 39.6636C49.5956 39.502 49.3543 39.4211 49.0225 39.4211C48.6505 39.4211 48.2283 39.5323 47.7557 39.7445L47.5446 39.2493C47.7658 39.1382 48.0071 39.0472 48.2685 38.9866C48.5299 38.9259 48.7913 38.8956 49.0527 38.8956C49.5855 38.8956 49.9776 39.0068 50.239 39.2291C50.5004 39.4514 50.6211 39.8152 50.6211 40.3104V43.2005H50.1184V43.1904ZM48.5902 42.7458C49.0125 42.7458 49.3442 42.6346 49.5855 42.4224C49.8268 42.2001 49.9475 41.8969 49.9475 41.5028V41.1188L49.2638 41.139C48.731 41.1592 48.3389 41.2401 48.0976 41.3816C47.8563 41.523 47.7457 41.7352 47.7457 42.0384C47.7457 42.2708 47.816 42.4426 47.9669 42.5639C48.1177 42.6852 48.3187 42.7458 48.5902 42.7458Z" fill="#1D1D1B"></path><path d="M55.6883 42.0384C55.6883 42.4325 55.5374 42.7357 55.2258 42.9479C54.9141 43.1601 54.4818 43.2712 53.9188 43.2712C53.3256 43.2712 52.8631 43.1803 52.5313 43.0085V42.4123C52.7425 42.5133 52.9737 42.5942 53.2251 42.6548C53.4663 42.7154 53.7076 42.7458 53.9389 42.7458C54.2908 42.7458 54.5622 42.6952 54.7532 42.5841C54.9443 42.4729 55.0348 42.3112 55.0348 42.099C55.0348 41.9373 54.9543 41.7958 54.8035 41.6746C54.6527 41.5634 54.3611 41.4219 53.9188 41.2603C53.5066 41.1087 53.2049 40.9874 53.034 40.8763C52.8631 40.7651 52.7324 40.6438 52.6419 40.5024C52.5615 40.3609 52.5112 40.1992 52.5112 40.0072C52.5112 39.6636 52.662 39.3908 52.9536 39.1887C53.2452 38.9866 53.6574 38.8855 54.1701 38.8855C54.6527 38.8855 55.1152 38.9764 55.5777 39.1684L55.3364 39.6939C54.8839 39.5221 54.4818 39.4312 54.1199 39.4312C53.7981 39.4312 53.5568 39.4817 53.396 39.5727C53.2351 39.6636 53.1547 39.795 53.1547 39.9668C53.1547 40.0779 53.1848 40.179 53.2452 40.2598C53.3055 40.3407 53.406 40.4114 53.5367 40.4923C53.6674 40.563 53.9288 40.664 54.3209 40.8055C54.8538 40.9874 55.2057 41.1693 55.3967 41.3613C55.5978 41.5331 55.6883 41.7655 55.6883 42.0384Z" fill="#1D1D1B"></path><path d="M60.4739 42.0384C60.4739 42.4325 60.3231 42.7357 60.0114 42.9479C59.6997 43.1601 59.2674 43.2712 58.7044 43.2712C58.1112 43.2712 57.6488 43.1803 57.317 43.0085V42.4123C57.5281 42.5133 57.7594 42.5942 58.0107 42.6548C58.252 42.7154 58.4933 42.7458 58.7245 42.7458C59.0764 42.7458 59.3479 42.6952 59.5389 42.5841C59.7299 42.4729 59.8204 42.3112 59.8204 42.099C59.8204 41.9373 59.74 41.7958 59.5892 41.6746C59.4383 41.5634 59.1468 41.4219 58.7044 41.2603C58.2922 41.1087 57.9906 40.9874 57.8197 40.8763C57.6488 40.7651 57.5181 40.6438 57.4276 40.5024C57.3471 40.3609 57.2969 40.1992 57.2969 40.0072C57.2969 39.6636 57.4477 39.3908 57.7392 39.1887C58.0308 38.9866 58.443 38.8855 58.9558 38.8855C59.4383 38.8855 59.9008 38.9764 60.3633 39.1684L60.122 39.6939C59.6696 39.5221 59.2674 39.4312 58.9055 39.4312C58.5838 39.4312 58.3425 39.4817 58.1816 39.5727C58.0208 39.6636 57.9403 39.795 57.9403 39.9668C57.9403 40.0779 57.9705 40.179 58.0308 40.2598C58.0911 40.3407 58.1917 40.4114 58.3224 40.4923C58.4531 40.563 58.7145 40.664 59.1066 40.8055C59.6394 40.9874 59.9913 41.1693 60.1823 41.3613C60.3834 41.5331 60.4739 41.7655 60.4739 42.0384Z" fill="#1D1D1B"></path><path d="M62.324 37.8143C62.324 37.6728 62.3642 37.5617 62.4346 37.4909C62.515 37.4202 62.6055 37.3899 62.7161 37.3899C62.8267 37.3899 62.9172 37.4202 62.9976 37.4909C63.078 37.5617 63.1182 37.6627 63.1182 37.8143C63.1182 37.9558 63.078 38.067 62.9976 38.1377C62.9172 38.2084 62.8267 38.2387 62.7161 38.2387C62.6055 38.2387 62.5049 38.2084 62.4346 38.1377C62.3642 38.067 62.324 37.9659 62.324 37.8143ZM63.0579 43.1904H62.3843V38.9663H63.0579V43.1904Z" fill="#1D1D1B"></path><path d="M68.3561 43.1904V40.4518C68.3561 40.1082 68.2757 39.8455 68.1048 39.6838C67.9339 39.512 67.6825 39.4312 67.3306 39.4312C66.8682 39.4312 66.5263 39.5525 66.3051 39.795C66.084 40.0375 65.9834 40.4316 65.9834 40.9773V43.1904H65.3098V38.9663H65.8628L65.9734 39.5423H66.0035C66.1443 39.3301 66.3353 39.1684 66.5867 39.0573C66.838 38.9461 67.1095 38.8855 67.4211 38.8855C67.954 38.8855 68.3662 39.0068 68.6376 39.2493C68.9091 39.4918 69.0398 39.8859 69.0398 40.4316V43.1904H68.3561Z" fill="#1D1D1B"></path><path d="M73.9663 43.1904L73.8356 42.5942H73.8054C73.5842 42.8569 73.3631 43.0388 73.1419 43.1298C72.9207 43.2207 72.6492 43.2713 72.3175 43.2713C71.8751 43.2713 71.5333 43.1702 71.2819 42.9479C71.0306 42.7357 70.9099 42.4224 70.9099 42.0283C70.9099 41.1693 71.6338 40.7247 73.0715 40.6843L73.8255 40.6641V40.4013C73.8255 40.0679 73.7451 39.8253 73.5943 39.6636C73.4435 39.502 73.2022 39.4211 72.8704 39.4211C72.4984 39.4211 72.0762 39.5323 71.6036 39.7445L71.3925 39.2493C71.6137 39.1382 71.855 39.0472 72.1164 38.9866C72.3778 38.9259 72.6392 38.8956 72.9006 38.8956C73.4334 38.8956 73.8255 39.0068 74.0869 39.2291C74.3483 39.4514 74.469 39.8152 74.469 40.3104V43.2005H73.9663V43.1904ZM72.4381 42.7458C72.8604 42.7458 73.1921 42.6346 73.4334 42.4224C73.6747 42.2001 73.7954 41.8969 73.7954 41.5028V41.1188L73.1218 41.1491C72.5889 41.1693 72.1968 41.2502 71.9656 41.3917C71.7243 41.5331 71.6036 41.7454 71.6036 42.0485C71.6036 42.2809 71.674 42.4527 71.8248 42.574C71.9656 42.6851 72.1767 42.7458 72.4381 42.7458Z" fill="#1D1D1B"></path><path d="M78.7015 38.8855C78.9026 38.8855 79.0735 38.9057 79.2344 38.936L79.1439 39.5322C78.9629 39.4918 78.792 39.4716 78.6513 39.4716C78.2893 39.4716 77.9777 39.6131 77.7263 39.8859C77.4649 40.1689 77.3443 40.5125 77.3443 40.9268V43.1904H76.6707V38.9663H77.2236L77.304 39.7546H77.3342C77.4951 39.4817 77.6961 39.2695 77.9374 39.1179C78.1687 38.9663 78.4301 38.8855 78.7015 38.8855Z" fill="#1D1D1B"></path><path d="M80.7827 42.7862C80.7827 42.4325 80.9436 42.2607 81.2653 42.2607C81.4262 42.2607 81.5468 42.3012 81.6272 42.3921C81.7177 42.4831 81.7579 42.6144 81.7579 42.7862C81.7579 42.9479 81.7177 43.0793 81.6272 43.1702C81.5368 43.2612 81.4161 43.3117 81.2653 43.3117C81.1245 43.3117 81.0039 43.2713 80.9134 43.1904C80.833 43.0995 80.7827 42.9681 80.7827 42.7862ZM81.4865 41.6443H81.0542L80.843 37.5516H81.6876L81.4865 41.6443Z" fill="#1D1D1B"></path><defs><linearGradient id="paint0_linear_1_2369" x1="145.812" y1="17.5888" x2="142.218" y2="8.73893" gradientUnits="userSpaceOnUse"><stop stop-color="#8654FF"></stop><stop offset="1" stop-color="#09EEFE"></stop></linearGradient><linearGradient id="paint1_linear_1_2369" x1="151.35" y1="16.9297" x2="164.961" y2="0.379367" gradientUnits="userSpaceOnUse"><stop stop-color="#9167FF"></stop><stop offset="1" stop-color="#09EEFE"></stop></linearGradient></defs></svg> 